<svg width="230" height="42" viewBox="0 0 230 42" xmlns="http://www.w3.org/2000/svg" xmlns:xlink="http://www.w3.org/1999/xlink">
  <title>Logo</title>
  <g fill="none" fill-rule="evenodd">
    <path fill="#009AA6" d="M20.625 0L0 20.63l20.625 20.628 20.63-20.628z"></path>
    <path d="M9.748 26.478c-.16-6.605 7.789-5.746 7.789-9.13 0-1.1-.863-2.041-2.784-2.041-1.401 0-2.743.701-3.724 1.602l-1.46-1.463c1.259-1.18 3.223-2.14 5.284-2.14 3.304 0 4.986 1.842 4.986 4.003 0 4.986-7.728 4.104-7.728 8.27h7.607v1.98h-9.95l-.02-1.081zm15.937-.5c-1.521 0-2.423-.98-2.423-2.862 0-2.404 1.602-4.566 3.525-4.566 1.5 0 2.402.981 2.402 2.883 0 2.401-1.582 4.545-3.504 4.545zm9.713-9.25h-8.444v.003c-3.437.005-6.033 2.745-6.033 6.403 0 2.905 1.881 4.666 4.544 4.666 3.464 0 6.067-2.743 6.067-6.386 0-1.182-.313-2.173-.856-2.935h2.947l1.775-1.75z" fill="#FFF"></path>
    </g>
</svg>